<?xml version="1.0" encoding="utf-8"?>
<!-- Generator: Adobe Illustrator 25.0.0, SVG Export Plug-In . SVG Version: 6.00 Build 0)  -->
<svg version="1.1" id="Calque_1" xmlns="http://www.w3.org/2000/svg" xmlns:xlink="http://www.w3.org/1999/xlink" x="0px" y="0px"
	 viewBox="0 0 640 480" style="enable-background:new 0 0 640 480;" xml:space="preserve">
<style type="text/css">
	.logo{fill:rgba(248, 219, 27,.6);}
</style>
<path class="logo" d="M12.6,167.7C12.1,193.3,7.7,253,32.2,321c24.9,69.2,126.7,154.7,272.3,154.7c148,0,268.1-73,268.1-163
	S452.5,149.8,304.5,149.8c-44.5,0-86.6,6.6-123.5,18.3c-46,12.4-66-9.8-75.8-19.7c-21.8-22.1-24.1-36-30.9-63.5
	C72.1,75.8,13.7,102.4,12.6,167.7L12.6,167.7L12.6,167.7L12.6,167.7z"/>
<path class="logo" d="M37.1,318.7C65.8,395,162.4,472,308,472c148,0,314.1-93.6,245.7-215.4c-28.1-50-94.9,33.1-242.9,33.1
	c-44.5,0-160.5-2.7-192.3-24.9C68.7,230,8.3,241.9,37.1,318.7L37.1,318.7L37.1,318.7z"/>
<path class="logo" d="M15.4,173.3c-0.5,25.6-1.2,78.1,22.4,146.3c23.2,67,118.3,153.3,263.9,153.3c148,0,268.1-66.1,268.1-156.1
	c0-89.9-120.1-162.9-268.1-162.9c-44.5,0-86.6,6.6-123.5,18.3c-46,12.4-66-9.8-75.8-19.7c-21.8-22.1-24.1-36-30.9-63.5
	C69.3,79.9,16.5,107.9,15.4,173.3L15.4,173.3L15.4,173.3z"/>
<g>
	<path class="logo" d="M391.6,343.1c-25.3-34.3-115.2-40.5-158.6-27.6c-43.8,13-30.9,13.8-78.6,22.1c-47.7,8.3-78.6-11-78.6-11
		s-3.3,18.4,2.8,35.9c36.5,104.9,237.9,132.8,293.4,98C424.3,427.6,417.5,378.3,391.6,343.1L391.6,343.1L391.6,343.1z"/>
	<path class="logo" d="M395.8,438.1c-25.3,33.1-57.6,35.9-84.2,35.9s-66-4.1-85.6-9.7c-19.7-5.5-70.6-14.7-70.2-30.4
		c0.4-17.1,63.2-99.4,119.3-109.1c48-8.3,93,7.3,110.9,24.9C400.2,363.6,422.5,392.5,395.8,438.1L395.8,438.1z"/>
</g>
<g>
	<path class="logo" d="M71.1,83c-25.3,8.8-45.2,38-50.4,57.1c-4.4,16.4-6.2,39.3-6.2,39.3s9.1-33.3,11.7-38.3c2-3.9,3.1-6.7,9.2-5.4
		c4.2,0.9,14.9,16.9,20.3,19.5c4.5,2.2-15.9-21-16.9-29.8c-1-8.8,9.8-23.9,16.9-29.8L71.1,83L71.1,83z"/>
	<path class="logo" d="M394.4,347.2c-37.8-52.2-126.5-36.1-137.7-34.7c-33.7,4.1-51.3,15.1-73.6,20.9c-26.7,6.9-59.8,11.2-84.9,3.2
		c-21.2-6.7,6.3,9.5,6.3,9.5s15.2,13,41.8,7.4c26.7-5.5,75.7-22.8,103.2-29.4c27.9-6.7,62.5-6.6,90.8-0.5
		C357,327.4,368.1,330.9,394.4,347.2L394.4,347.2L394.4,347.2z"/>
	<path class="logo" d="M132.6,171.9c-49.1-22.8-56.9-64.2-58.3-73.2c-0.9-5.5-4.9-13.1-4.9-13.1s-28.1,24.9-26.7,37.3
		c1.4,11.7,16.3,34.4,29.5,49c16.8,18.6,34.3,48.5,59,53.9c19,4.1,9.8-3.5,9.1-4.1c-26.7-26.3-28.4-37.1-19.7-41.4
		c8.4-4.1,36.5-4.8,36.5-4.8L132.6,171.9L132.6,171.9z"/>
	<path class="logo" d="M78.5,345.9c2.8,23.5,16.8,51.1,28.1,59.4s37.9,26.2,37.9,26.2s-28.1-16.6-28.1-34.5s19.7-33.1,19.7-33.1
		s-30.9-2.8-39.3-11C88.3,344.5,77.1,343.1,78.5,345.9L78.5,345.9z"/>
	<path class="logo" d="M24.4,231.9c-2-61.5,18.9-59.6,18.9-59.6s8.9-2.9,13.9,2.9c5,5.9,70.5,85.9,89.3,88.9
		c18.9,2.9,95.3,12.7,107.2,12.7c11.9,0-85.4,2.9-120.1-1c-34.7-3.9-70.5-62.5-79.4-60.5C45.3,217.3,25.4,231.9,24.4,231.9
		L24.4,231.9L24.4,231.9z"/>
</g>
<g>
	<path class="logo" d="M534.8,127.7c0,68.6-55.3,124.3-123.5,124.3c-68.2,0-123.5-55.6-123.5-124.3C287.7,59,343,3.4,411.2,3.4
		C479.4,3.4,534.8,59,534.8,127.7z"/>
	<path class="logo" d="M529.1,127.1c0,67.1-53.1,121.5-118.6,121.5s-118.6-54.4-118.6-121.5C291.9,60,345,5.6,410.5,5.6
		S529.1,60,529.1,127.1z"/>
</g>
<path class="logo" d="M525.6,129.1c0,62.2-48.4,112.6-108.2,112.6c-59.8,0-108.2-50.4-108.2-112.6c0-62.2,48.4-112.6,108.2-112.6
	C477.2,16.4,525.6,66.8,525.6,129.1z"/>
<path class="logo" d="M522.8,134.6c0,62.5-51.2,113.2-114.4,113.2c-63.2,0-114.4-50.7-114.4-113.2C294,72,345.2,21.3,408.4,21.3
	C471.6,21.3,522.8,72,522.8,134.6L522.8,134.6z"/>
<path class="logo" d="M429.2,89.7c0,27.7-24.7,50.2-55.2,50.2c-30.5,0-55.2-22.5-55.2-50.2s24.7-50.2,55.2-50.2
	C404.5,39.6,429.2,62,429.2,89.7z"/>
<path class="logo" d="M477,202.6c11.8,8.4,79.3,17.4,109.1,4.2c27.1-12,44.6-50,38.3-51.6c-15.9-3.9-161.7-6.9-163.5,21.8
	C460.7,179.2,464.8,193.9,477,202.6L477,202.6z"/>
<g>
	<path class="logo" d="M460.3,173.2c7-12.4,19.8-35.8,35.1-44.7c14.9-8.6,30.9-13.8,40.7-4.1c9.8,9.7,14,19.3,43.5,24.9
		c29.5,5.5,47.4-5.9,46.3,5.5c-2.7,29.6-40.2,54.5-92.7,46.9C498.1,196.6,489.2,193.3,460.3,173.2L460.3,173.2z"/>
</g>
<path class="logo" d="M488.9,109.3c0,23.6-17,42.8-37.9,42.8s-37.9-19.2-37.9-42.8s17-42.8,37.9-42.8S488.9,85.7,488.9,109.3z"/>
<path class="logo" d="M481.9,114.8c0,13.7-9.1,24.9-20.4,24.9s-20.4-11.1-20.4-24.9S450.3,90,461.5,90S481.9,101.1,481.9,114.8z"/>
<path class="logo" d="M459.4,105.5c0,6.7-5.2,12.1-11.6,12.1c-6.4,0-11.6-5.4-11.6-12.1c0-6.7,5.2-12.1,11.6-12.1
	C454.2,93.4,459.4,98.9,459.4,105.5z"/>
<path class="logo" d="M531.3,86.1c2,15.3-2.7,28.5-10.6,29.6c-7.9,1-15.9-10.6-18-25.9c-2-15.3,2.7-28.5,10.6-29.6
	c7.8-1,15.8,10.3,17.9,25.5"/>
<path class="logo" d="M530,88.9c0,8.4-4.1,15.2-9.1,15.2s-9.1-6.8-9.1-15.2c0-8.4,4.1-15.2,9.1-15.2S530,80.5,530,88.9z"/>
<path class="logo" d="M522.3,83.8c0,4.4-3.1,7.9-7,7.9c-3.9,0-7-3.6-7-7.9s3.1-7.9,7-7.9C519.2,75.8,522.3,79.4,522.3,83.8z"/>
<g>
	<path class="logo" d="M465.9,171.3c6.6-10.8,18.7-31.2,33.2-39c14.1-7.5,29.2-12,38.5-3.6c9.3,8.4,13.3,16.9,41.2,21.7
		c27.9,4.8,44.8-5.1,43.8,4.8c-2.6,25.8-38,47.5-87.7,40.9C501.8,191.7,493.3,188.9,465.9,171.3L465.9,171.3z"/>
</g>
</svg>
