<svg xmlns="http://www.w3.org/2000/svg" viewBox="0 0 116.83 15.77"><defs><style>.cls-1{fill:#1d1d1b;}</style></defs><g id="Calque_2" data-name="Calque 2"><g id="Calque_1-2" data-name="Calque 1"><path class="cls-1" d="M0,6.79C0,3.26,2.39,0,6.5,0a6.72,6.72,0,0,1,6.88,6.9,6.73,6.73,0,0,1-3.12,5.88,3.52,3.52,0,0,0,.33-1.63C10.59,7.27,6.59,1,4,1c-.72,0-1.17.48-1.17,1.53,0,4.55,5.06,11.92,11.25,13.21v0C4.47,15.88,0,11.81,0,6.79Z"/><path class="cls-1" d="M16.53,8V1.31L14.93.36h7.16l-1.6,1V8.25c0,3.69,1,4.88,2.92,4.88s3-1.46,2.86-5L26,1.31,23.82.36h5.12l-1.61,1L27,8.75c-.16,3.76-1.41,4.93-4.63,4.93C18.15,13.68,16.53,11.85,16.53,8Z"/><path class="cls-1" d="M43.09,13v.28H36.46V13h1.48L36.51,9.65H32.37L31.28,13h1.85v.28h-4V13h.74L35.61,0h.94l5.71,13ZM36.37,9.33,34.16,4.1l-1.7,5.23Z"/><path class="cls-1" d="M43.83,6.41C43.83,2.54,46.42,0,50.37,0a9.93,9.93,0,0,1,4.71,1.1L53.5,7.38h0C50.75,2,49.3.83,48,.83c-.8,0-1.41.61-1.41,2.05,0,4.59,3.75,8.36,7.58,8.36A4.06,4.06,0,0,0,55.68,11l0,0a5.76,5.76,0,0,1-5,2.66C46.55,13.68,43.83,10.66,43.83,6.41Z"/><path class="cls-1" d="M62.88,13h1.35v.28H57.48V13h1.44V1.33l-1.6-1h7.16l-1.6,1Zm9.52,0v.28H67L63.06,7.11l4.7-5.8L66.16.36h5.63l-6,3.89L71.5,13Z"/><path class="cls-1" d="M87.93.36l-1.62.94v12h-.94L76.13,2.45,76.85,13H79v.28H74.5V13h1L75.77,1.4l-1.72-1h5.49L86,8.21l-1-6.91L83.32.36Z"/><path class="cls-1" d="M95.62.65V6.41A4,4,0,0,0,98.68,4h0v5h0a3.93,3.93,0,0,0-3.06-2.4V13c2.12,0,3.94-1.08,5.63-4.22h0v4.5h-11V13h1.44V1.33l-1.61-1h11.22v4.5h0C99.56,1.76,97.74.67,95.62.65Z"/><path class="cls-1" d="M116.83,5.44h0C115.46,2.34,114,.86,112.33.67V13H114v.28h-7.21V13h1.63V.67c-1.61.19-3.12,1.67-4.47,4.77h0V.36h13Z"/></g></g></svg>